<mxfile host="app.diagrams.net" modified="2024-06-14T16:42:00.045Z" agent="Mozilla/5.0 (Windows NT 10.0; Win64; x64; rv:127.0) Gecko/20100101 Firefox/127.0" etag="ILG1d8c8Xj_pbQoGkZOs" version="24.4.9" type="device">
  <diagram name="Seite-1" id="OXgRvyTS386xBz58XzAU">
    <mxGraphModel dx="2074" dy="673" grid="1" gridSize="10" guides="1" tooltips="1" connect="1" arrows="1" fold="1" page="1" pageScale="1" pageWidth="827" pageHeight="1169" math="0" shadow="0">
      <root>
        <mxCell id="0" />
        <mxCell id="1" parent="0" />
        <mxCell id="4qNAF4D0jnQwjrUJQjd3-1" value="Ship" style="swimlane;fontStyle=1;align=center;verticalAlign=top;childLayout=stackLayout;horizontal=1;startSize=30;horizontalStack=0;resizeParent=1;resizeParentMax=0;resizeLast=0;collapsible=1;marginBottom=0;whiteSpace=wrap;html=1;" vertex="1" parent="1">
          <mxGeometry x="350" y="120" width="190" height="94" as="geometry" />
        </mxCell>
        <mxCell id="4qNAF4D0jnQwjrUJQjd3-4" value="&lt;div&gt;sunk() abstract&lt;br&gt;getLength() abstract&lt;br&gt;&lt;/div&gt;" style="text;strokeColor=none;fillColor=none;align=left;verticalAlign=top;spacingLeft=4;spacingRight=4;overflow=hidden;rotatable=0;points=[[0,0.5],[1,0.5]];portConstraint=eastwest;whiteSpace=wrap;html=1;fontStyle=4" vertex="1" parent="4qNAF4D0jnQwjrUJQjd3-1">
          <mxGeometry y="30" width="190" height="64" as="geometry" />
        </mxCell>
        <mxCell id="4qNAF4D0jnQwjrUJQjd3-13" style="rounded=0;orthogonalLoop=1;jettySize=auto;html=1;exitX=0.5;exitY=0;exitDx=0;exitDy=0;entryX=0.11;entryY=1.088;entryDx=0;entryDy=0;endArrow=block;endFill=0;entryPerimeter=0;" edge="1" parent="1" source="4qNAF4D0jnQwjrUJQjd3-5" target="4qNAF4D0jnQwjrUJQjd3-4">
          <mxGeometry relative="1" as="geometry" />
        </mxCell>
        <mxCell id="4qNAF4D0jnQwjrUJQjd3-5" value="&lt;div&gt;Cruiser 2&lt;/div&gt;" style="swimlane;fontStyle=1;align=center;verticalAlign=top;childLayout=stackLayout;horizontal=1;startSize=26;horizontalStack=0;resizeParent=1;resizeParentMax=0;resizeLast=0;collapsible=1;marginBottom=0;whiteSpace=wrap;html=1;" vertex="1" parent="1">
          <mxGeometry x="70" y="310" width="160" height="80" as="geometry" />
        </mxCell>
        <mxCell id="4qNAF4D0jnQwjrUJQjd3-6" value="sunk(): boolean&lt;br&gt;getLength(): int&lt;br&gt;setCoordinates(): Vector" style="text;strokeColor=none;fillColor=none;align=left;verticalAlign=top;spacingLeft=4;spacingRight=4;overflow=hidden;rotatable=0;points=[[0,0.5],[1,0.5]];portConstraint=eastwest;whiteSpace=wrap;html=1;fontStyle=4" vertex="1" parent="4qNAF4D0jnQwjrUJQjd3-5">
          <mxGeometry y="26" width="160" height="54" as="geometry" />
        </mxCell>
        <mxCell id="4qNAF4D0jnQwjrUJQjd3-7" value="Battleship 1" style="swimlane;fontStyle=1;align=center;verticalAlign=top;childLayout=stackLayout;horizontal=1;startSize=26;horizontalStack=0;resizeParent=1;resizeParentMax=0;resizeLast=0;collapsible=1;marginBottom=0;whiteSpace=wrap;html=1;" vertex="1" parent="1">
          <mxGeometry x="254" y="310" width="160" height="80" as="geometry" />
        </mxCell>
        <mxCell id="4qNAF4D0jnQwjrUJQjd3-8" value="sunk(): boolean&lt;br&gt;getLength(): int&lt;br&gt;setCoordinates(): Vector" style="text;strokeColor=none;fillColor=none;align=left;verticalAlign=top;spacingLeft=4;spacingRight=4;overflow=hidden;rotatable=0;points=[[0,0.5],[1,0.5]];portConstraint=eastwest;whiteSpace=wrap;html=1;fontStyle=4" vertex="1" parent="4qNAF4D0jnQwjrUJQjd3-7">
          <mxGeometry y="26" width="160" height="54" as="geometry" />
        </mxCell>
        <mxCell id="4qNAF4D0jnQwjrUJQjd3-9" value="Destroyer 3" style="swimlane;fontStyle=1;align=center;verticalAlign=top;childLayout=stackLayout;horizontal=1;startSize=26;horizontalStack=0;resizeParent=1;resizeParentMax=0;resizeLast=0;collapsible=1;marginBottom=0;whiteSpace=wrap;html=1;" vertex="1" parent="1">
          <mxGeometry x="450" y="310" width="160" height="80" as="geometry" />
        </mxCell>
        <mxCell id="4qNAF4D0jnQwjrUJQjd3-10" value="sunk(): boolean&lt;br&gt;getLength(): int&lt;br&gt;setCoordinates(): Vector" style="text;strokeColor=none;fillColor=none;align=left;verticalAlign=top;spacingLeft=4;spacingRight=4;overflow=hidden;rotatable=0;points=[[0,0.5],[1,0.5]];portConstraint=eastwest;whiteSpace=wrap;html=1;fontStyle=4" vertex="1" parent="4qNAF4D0jnQwjrUJQjd3-9">
          <mxGeometry y="26" width="160" height="54" as="geometry" />
        </mxCell>
        <mxCell id="4qNAF4D0jnQwjrUJQjd3-11" value="&lt;div&gt;Uboat 4&lt;/div&gt;" style="swimlane;fontStyle=1;align=center;verticalAlign=top;childLayout=stackLayout;horizontal=1;startSize=26;horizontalStack=0;resizeParent=1;resizeParentMax=0;resizeLast=0;collapsible=1;marginBottom=0;whiteSpace=wrap;html=1;" vertex="1" parent="1">
          <mxGeometry x="640" y="310" width="160" height="80" as="geometry" />
        </mxCell>
        <mxCell id="4qNAF4D0jnQwjrUJQjd3-12" value="sunk(): boolean&lt;br&gt;getLength(): int&lt;br&gt;setCoordinates(): Vector" style="text;strokeColor=none;fillColor=none;align=left;verticalAlign=top;spacingLeft=4;spacingRight=4;overflow=hidden;rotatable=0;points=[[0,0.5],[1,0.5]];portConstraint=eastwest;whiteSpace=wrap;html=1;fontStyle=4" vertex="1" parent="4qNAF4D0jnQwjrUJQjd3-11">
          <mxGeometry y="26" width="160" height="54" as="geometry" />
        </mxCell>
        <mxCell id="4qNAF4D0jnQwjrUJQjd3-15" style="rounded=0;orthogonalLoop=1;jettySize=auto;html=1;exitX=0.5;exitY=0;exitDx=0;exitDy=0;entryX=0.33;entryY=1.034;entryDx=0;entryDy=0;endArrow=block;endFill=0;entryPerimeter=0;" edge="1" parent="1" source="4qNAF4D0jnQwjrUJQjd3-7" target="4qNAF4D0jnQwjrUJQjd3-4">
          <mxGeometry relative="1" as="geometry">
            <mxPoint x="170" y="310" as="sourcePoint" />
            <mxPoint x="382" y="192" as="targetPoint" />
          </mxGeometry>
        </mxCell>
        <mxCell id="4qNAF4D0jnQwjrUJQjd3-16" style="rounded=0;orthogonalLoop=1;jettySize=auto;html=1;exitX=0.5;exitY=0;exitDx=0;exitDy=0;entryX=0.709;entryY=1.034;entryDx=0;entryDy=0;endArrow=block;endFill=0;entryPerimeter=0;" edge="1" parent="1" source="4qNAF4D0jnQwjrUJQjd3-9" target="4qNAF4D0jnQwjrUJQjd3-4">
          <mxGeometry relative="1" as="geometry">
            <mxPoint x="254" y="310" as="sourcePoint" />
            <mxPoint x="466" y="192" as="targetPoint" />
          </mxGeometry>
        </mxCell>
        <mxCell id="4qNAF4D0jnQwjrUJQjd3-17" style="rounded=0;orthogonalLoop=1;jettySize=auto;html=1;exitX=0.5;exitY=0;exitDx=0;exitDy=0;entryX=0.937;entryY=1.034;entryDx=0;entryDy=0;endArrow=block;endFill=0;entryPerimeter=0;" edge="1" parent="1" source="4qNAF4D0jnQwjrUJQjd3-11" target="4qNAF4D0jnQwjrUJQjd3-4">
          <mxGeometry relative="1" as="geometry">
            <mxPoint x="298" y="310" as="sourcePoint" />
            <mxPoint x="510" y="192" as="targetPoint" />
          </mxGeometry>
        </mxCell>
        <mxCell id="4qNAF4D0jnQwjrUJQjd3-18" value="Playfield" style="swimlane;fontStyle=1;align=center;verticalAlign=top;childLayout=stackLayout;horizontal=1;startSize=26;horizontalStack=0;resizeParent=1;resizeParentMax=0;resizeLast=0;collapsible=1;marginBottom=0;whiteSpace=wrap;html=1;" vertex="1" parent="1">
          <mxGeometry x="350" y="440" width="160" height="52" as="geometry" />
        </mxCell>
        <mxCell id="4qNAF4D0jnQwjrUJQjd3-21" value="+ method(type): type" style="text;strokeColor=none;fillColor=none;align=left;verticalAlign=top;spacingLeft=4;spacingRight=4;overflow=hidden;rotatable=0;points=[[0,0.5],[1,0.5]];portConstraint=eastwest;whiteSpace=wrap;html=1;" vertex="1" parent="4qNAF4D0jnQwjrUJQjd3-18">
          <mxGeometry y="26" width="160" height="26" as="geometry" />
        </mxCell>
        <mxCell id="4qNAF4D0jnQwjrUJQjd3-22" value="Map" style="swimlane;fontStyle=1;align=center;verticalAlign=top;childLayout=stackLayout;horizontal=1;startSize=26;horizontalStack=0;resizeParent=1;resizeParentMax=0;resizeLast=0;collapsible=1;marginBottom=0;whiteSpace=wrap;html=1;" vertex="1" parent="1">
          <mxGeometry x="350" y="700" width="160" height="118" as="geometry" />
        </mxCell>
        <mxCell id="4qNAF4D0jnQwjrUJQjd3-23" value="matrix[][]&lt;br&gt;shipCoordinates[]" style="text;strokeColor=none;fillColor=none;align=left;verticalAlign=top;spacingLeft=4;spacingRight=4;overflow=hidden;rotatable=0;points=[[0,0.5],[1,0.5]];portConstraint=eastwest;whiteSpace=wrap;html=1;" vertex="1" parent="4qNAF4D0jnQwjrUJQjd3-22">
          <mxGeometry y="26" width="160" height="34" as="geometry" />
        </mxCell>
        <mxCell id="4qNAF4D0jnQwjrUJQjd3-24" value="" style="line;strokeWidth=1;fillColor=none;align=left;verticalAlign=middle;spacingTop=-1;spacingLeft=3;spacingRight=3;rotatable=0;labelPosition=right;points=[];portConstraint=eastwest;strokeColor=inherit;" vertex="1" parent="4qNAF4D0jnQwjrUJQjd3-22">
          <mxGeometry y="60" width="160" height="8" as="geometry" />
        </mxCell>
        <mxCell id="4qNAF4D0jnQwjrUJQjd3-25" value="getCoordinates()&lt;br&gt;rememberSetShips()" style="text;strokeColor=none;fillColor=none;align=left;verticalAlign=top;spacingLeft=4;spacingRight=4;overflow=hidden;rotatable=0;points=[[0,0.5],[1,0.5]];portConstraint=eastwest;whiteSpace=wrap;html=1;" vertex="1" parent="4qNAF4D0jnQwjrUJQjd3-22">
          <mxGeometry y="68" width="160" height="50" as="geometry" />
        </mxCell>
        <mxCell id="4qNAF4D0jnQwjrUJQjd3-35" value="1" style="endArrow=open;html=1;endSize=12;startArrow=diamondThin;startSize=14;startFill=1;edgeStyle=orthogonalEdgeStyle;align=left;verticalAlign=bottom;rounded=0;entryX=0.5;entryY=0;entryDx=0;entryDy=0;exitX=0.519;exitY=0.981;exitDx=0;exitDy=0;exitPerimeter=0;" edge="1" parent="1" source="4qNAF4D0jnQwjrUJQjd3-21" target="4qNAF4D0jnQwjrUJQjd3-22">
          <mxGeometry x="-0.7306" relative="1" as="geometry">
            <mxPoint x="430" y="510" as="sourcePoint" />
            <mxPoint x="439.91000000000025" y="682.41" as="targetPoint" />
            <mxPoint as="offset" />
          </mxGeometry>
        </mxCell>
        <mxCell id="4qNAF4D0jnQwjrUJQjd3-38" value="2" style="text;html=1;align=center;verticalAlign=middle;whiteSpace=wrap;rounded=0;" vertex="1" parent="1">
          <mxGeometry x="415" y="660" width="60" height="30" as="geometry" />
        </mxCell>
        <mxCell id="4qNAF4D0jnQwjrUJQjd3-39" value="1" style="endArrow=open;html=1;endSize=12;startArrow=diamondThin;startSize=14;startFill=0;edgeStyle=orthogonalEdgeStyle;align=left;verticalAlign=bottom;rounded=0;exitX=-0.019;exitY=0.154;exitDx=0;exitDy=0;exitPerimeter=0;entryX=0;entryY=0.5;entryDx=0;entryDy=0;" edge="1" parent="1">
          <mxGeometry x="-1" y="20" relative="1" as="geometry">
            <mxPoint x="346.9599999999998" y="728.0040000000001" as="sourcePoint" />
            <mxPoint x="350" y="180" as="targetPoint" />
            <Array as="points">
              <mxPoint x="347" y="718" />
              <mxPoint x="-10" y="718" />
              <mxPoint x="-10" y="180" />
            </Array>
            <mxPoint x="3" y="10" as="offset" />
          </mxGeometry>
        </mxCell>
        <mxCell id="4qNAF4D0jnQwjrUJQjd3-40" value="..10" style="text;html=1;align=center;verticalAlign=middle;whiteSpace=wrap;rounded=0;" vertex="1" parent="1">
          <mxGeometry x="290" y="150" width="60" height="30" as="geometry" />
        </mxCell>
      </root>
    </mxGraphModel>
  </diagram>
</mxfile>
